<svg width="177" height="100" viewBox="0 0 177 100" fill="none" xmlns="http://www.w3.org/2000/svg">
<path d="M158.612 8.50684C157.618 8.50684 156.66 9.39847 156.66 10.4016C156.66 11.4047 157.249 12.222 158.391 12.7793L163.51 15.1942L160.895 10.1787C160.343 9.0641 159.57 8.50684 158.612 8.50684Z" fill="white"/>
<path d="M8.13858 71.7393V42.9095H21.2856V41.8321H8.13858V19.541H21.2856V18.4636H3.75623C4.2718 19.4667 4.52959 20.5812 4.52959 21.7329V71.7393H8.13858ZM42.5829 69.7702C41.6624 70.4019 40.6681 70.6991 39.5633 70.6619H28.2576V42.9095H41.4046V41.8321H28.2576V19.541H41.4046V18.4636H23.8752C24.3907 19.4667 24.6486 20.5812 24.6486 21.7329V71.7393H39.8947C41.1467 71.7393 42.2515 71.3678 43.2091 70.5876L42.5829 69.7702ZM63.8066 69.7702C62.8861 70.4019 61.8918 70.6991 60.787 70.6619H50.2178V18.4636H45.8355C46.3511 19.4667 46.6089 20.5812 46.6089 21.7329V71.7393H61.0816C62.3338 71.7393 63.4384 71.3678 64.396 70.5876L63.8066 69.7702ZM70.6313 21.7329C70.6313 20.5812 70.8892 19.4667 71.4047 18.4636H66.249C66.7646 19.4667 67.0223 20.5812 67.0223 21.7329V68.4699C66.9855 69.6217 66.7278 70.7362 66.249 71.7393H71.4047C70.8892 70.7362 70.6313 69.6217 70.6313 68.4699V21.7329ZM120.801 25.7826C118.039 23.1447 115.092 21.1756 111.999 19.8382C108.906 18.5379 105.186 17.8691 100.878 17.8691C93.4386 17.8691 87.1046 20.5069 81.8752 25.8197C76.6458 31.1323 74.0313 37.5595 74.0313 45.1015C74.0313 52.6432 76.6458 59.0706 81.8752 64.3832C87.1046 69.696 93.4386 72.3336 100.878 72.3336C108.722 72.3336 115.314 69.5845 120.653 64.0489L119.806 63.2315C114.43 68.6186 108.132 71.2934 100.878 71.2934C93.7332 71.2934 88.1357 68.7671 84.0479 63.6773C79.9602 58.5876 77.9348 52.4204 77.9348 45.1015C77.9348 37.7826 79.9602 31.6154 84.0479 26.5256C88.1357 21.4729 93.7332 18.9465 100.878 18.9465C107.911 18.9465 113.951 21.8443 118.923 27.603L120.801 25.7826ZM127.809 21.7329C127.809 20.5812 128.067 19.4667 128.583 18.4636H123.427C123.943 19.4667 124.2 20.5812 124.2 21.7329V68.4699C124.164 69.6217 123.906 70.7362 123.427 71.7393H128.583C128.067 70.7362 127.809 69.6217 127.809 68.4699V21.7329ZM151.574 19.541V18.4636H130.436V19.541H139.2V68.4699C139.2 69.6217 138.943 70.7362 138.464 71.7393H143.583C143.067 70.7362 142.809 69.6217 142.809 68.4699V19.541H151.574ZM174.639 71.7393C174.087 70.9219 173.682 69.8073 173.424 68.3956L164.696 20.8413C164.438 19.5038 163.371 18.4636 162.045 18.4636H158.657C159.209 19.6896 159.32 21.2128 159.025 23.0332L150.408 71.7393H151.549L153.28 61.7826H168.526L169.741 68.3956C169.999 69.5473 169.889 70.6619 169.447 71.7393H174.639ZM153.501 60.7052L160.682 19.9125L160.756 19.8382C160.793 19.8382 160.829 19.8753 160.829 19.9125L168.305 60.7052H153.501Z" fill="white"/>
<path d="M37.9149 89.7065C37.9149 90.2354 37.7496 90.6559 37.4193 90.9674C37.0889 91.2717 36.6472 91.4674 36.094 91.5544V91.5978C36.7405 91.6848 37.2324 91.8876 37.5701 92.2065C37.9078 92.5254 38.0765 92.942 38.0765 93.4565C38.0765 94.1376 37.8179 94.692 37.3007 95.1196C36.7836 95.5472 36.0078 95.7609 34.9735 95.7609C34.5569 95.7609 34.1583 95.7283 33.7775 95.663C33.4041 95.605 33.0557 95.4963 32.7324 95.337V94.4457C33.0701 94.605 33.4364 94.732 33.8314 94.8261C34.2337 94.913 34.6108 94.9565 34.9627 94.9565C35.6523 94.9565 36.1731 94.8261 36.525 94.5652C36.8842 94.3043 37.0637 93.9348 37.0637 93.4565C37.0637 92.9637 36.8553 92.605 36.4388 92.3804C36.0223 92.1559 35.4404 92.0435 34.6934 92.0435H33.5944V91.2283H34.6395C35.4008 91.2283 35.9684 91.1015 36.3418 90.8478C36.7226 90.587 36.9129 90.2391 36.9129 89.8044C36.9129 89.413 36.7691 89.1124 36.4819 88.9022C36.1946 88.692 35.821 88.587 35.3614 88.587C34.8802 88.587 34.4779 88.6485 34.1546 88.7717C33.8385 88.895 33.5297 89.0543 33.228 89.25L32.7647 88.587C33.0664 88.3624 33.4364 88.1739 33.8745 88.0217C34.3199 87.8624 34.819 87.7826 35.3721 87.7826C36.2054 87.7826 36.8374 87.9637 37.2684 88.3261C37.6994 88.6885 37.9149 89.1485 37.9149 89.7065ZM47.8708 95.6522H46.9011V88.75H44.4661C44.4015 89.2863 44.3295 89.8515 44.2506 90.4457C44.1715 91.0326 44.0924 91.5941 44.0136 92.1304C43.9345 92.6667 43.8554 93.1233 43.7765 93.5C43.683 93.9854 43.5682 94.3985 43.4318 94.7391C43.2951 95.0798 43.112 95.337 42.8823 95.5109C42.6595 95.6848 42.3651 95.7717 41.9988 95.7717C41.8766 95.7717 41.751 95.7572 41.6217 95.7283C41.4995 95.7065 41.3918 95.6776 41.2984 95.6413V94.8261C41.3773 94.8624 41.4672 94.895 41.5678 94.9239C41.6682 94.9457 41.776 94.9565 41.891 94.9565C42.1065 94.9565 42.2752 94.8696 42.3974 94.6957C42.5267 94.5146 42.6271 94.2935 42.6991 94.0326C42.7709 93.7646 42.8318 93.5 42.8823 93.2391C42.9396 92.9637 43.0079 92.5615 43.087 92.0326C43.1732 91.4963 43.2628 90.8733 43.3563 90.163C43.4568 89.4528 43.5574 88.6957 43.658 87.8913H47.8708V95.6522ZM59.5825 91.7609C59.5825 92.5652 59.4532 93.268 59.1946 93.8696C58.9431 94.4637 58.566 94.9276 58.0633 95.2609C57.5606 95.5941 56.9357 95.7609 56.1886 95.7609C55.4559 95.7609 54.8381 95.6087 54.3354 95.3043C53.8398 95 53.459 94.5689 53.1933 94.0109C52.9276 93.4528 52.7802 92.7935 52.7516 92.0326H50.9307V95.6522H49.961V87.8913H50.9307V91.1739H52.7731C52.8233 90.4854 52.9815 89.8876 53.2472 89.3804C53.5129 88.8659 53.89 88.4711 54.3785 88.1957C54.867 87.913 55.463 87.7717 56.167 87.7717C56.9068 87.7717 57.5283 87.9385 58.031 88.2717C58.541 88.5978 58.9253 89.0615 59.1838 89.663C59.4495 90.2572 59.5825 90.9565 59.5825 91.7609ZM53.7643 91.7609C53.7643 92.7391 53.9546 93.5109 54.3354 94.0761C54.7233 94.6341 55.3303 94.913 56.1562 94.913C56.9966 94.913 57.6071 94.6341 57.9879 94.0761C58.3758 93.5109 58.5697 92.7391 58.5697 91.7609C58.5697 90.7826 58.3794 90.018 57.9987 89.4674C57.6179 88.9093 57.0111 88.6304 56.1778 88.6304C55.3445 88.6304 54.734 88.9093 54.3462 89.4674C53.9583 90.0254 53.7643 90.7898 53.7643 91.7609ZM61.293 95.6522V87.8913H65.8613V88.75H62.2627V91.1739H63.4048C64.1734 91.1739 64.7695 91.2717 65.1933 91.4674C65.6172 91.6559 65.9115 91.9167 66.0768 92.25C66.2421 92.5761 66.3246 92.9528 66.3246 93.3804C66.3246 94.0907 66.1128 94.6485 65.6889 95.0543C65.2651 95.4528 64.5505 95.6522 63.5449 95.6522H61.293ZM63.4479 94.8152C64.1374 94.8152 64.6223 94.6994 64.9024 94.4674C65.1825 94.2283 65.3226 93.8659 65.3226 93.3804C65.3226 92.8804 65.1681 92.5289 64.8593 92.3261C64.5505 92.1233 64.026 92.0217 63.2863 92.0217H62.2627V94.8152H63.4479ZM74.6342 91.7609C74.6342 92.5652 74.4976 93.268 74.2248 93.8696C73.9589 94.4637 73.5639 94.9276 73.0396 95.2609C72.5151 95.5941 71.8652 95.7609 71.0895 95.7609C70.2922 95.7609 69.6276 95.5941 69.0962 95.2609C68.5717 94.9276 68.1804 94.4602 67.9218 93.8587C67.6632 93.2572 67.5339 92.5544 67.5339 91.75C67.5339 90.9528 67.6632 90.2572 67.9218 89.663C68.1804 89.0689 68.5717 88.605 69.0962 88.2717C69.6276 87.9385 70.2956 87.7717 71.1002 87.7717C71.8687 87.7717 72.5151 87.9385 73.0396 88.2717C73.5639 88.5978 73.9589 89.0615 74.2248 89.663C74.4976 90.2572 74.6342 90.9565 74.6342 91.7609ZM68.5575 91.7609C68.5575 92.7391 68.7622 93.5109 69.1716 94.0761C69.5811 94.6341 70.2202 94.913 71.0895 94.913C71.9656 94.913 72.605 94.6341 73.0073 94.0761C73.4094 93.5109 73.6107 92.7391 73.6107 91.7609C73.6107 90.7826 73.4094 90.018 73.0073 89.4674C72.605 88.9093 71.9693 88.6304 71.1002 88.6304C70.231 88.6304 69.5882 88.9093 69.1716 89.4674C68.7622 90.018 68.5575 90.7826 68.5575 91.7609ZM78.5371 87.8913C79.4997 87.8913 80.225 88.0363 80.7135 88.3261C81.2092 88.6087 81.457 89.105 81.457 89.8152C81.457 90.2717 81.3313 90.6522 81.0799 90.9565C80.8284 91.2537 80.4657 91.4457 79.9916 91.5326V91.587C80.3149 91.6376 80.6058 91.732 80.8644 91.8696C81.1301 92.0072 81.3384 92.2028 81.4893 92.4565C81.6401 92.7102 81.7155 93.0398 81.7155 93.4457C81.7155 94.1485 81.4748 94.692 80.9937 95.0761C80.5196 95.4602 79.8695 95.6522 79.0435 95.6522H76.3392V87.8913H78.5371ZM78.7311 91.1957C79.392 91.1957 79.8445 91.0907 80.0886 90.8804C80.3328 90.663 80.4549 90.3441 80.4549 89.9239C80.4549 89.4963 80.3041 89.192 80.0024 89.0109C79.7079 88.8224 79.2338 88.7283 78.5802 88.7283H77.3088V91.1957H78.7311ZM77.3088 92.0109V94.8261H78.8604C79.5428 94.8261 80.0169 94.692 80.2826 94.4239C80.5483 94.1559 80.6812 93.8043 80.6812 93.3696C80.6812 92.9637 80.5411 92.6376 80.261 92.3913C79.988 92.1376 79.496 92.0109 78.7849 92.0109H77.3088ZM83.7431 88.1104C83.7431 88.4359 83.6765 88.7489 83.5431 89.0498C83.4134 89.3504 83.2345 89.6052 83.0065 89.8141L82.6331 89.5433C82.7943 89.3204 82.9154 89.0993 82.996 88.88C83.0768 88.657 83.1171 88.4041 83.1171 88.1209V87.5H83.7431V88.1104ZM94.8936 91.7609C94.8936 92.5652 94.7643 93.268 94.5058 93.8696C94.2543 94.4637 93.8772 94.9276 93.3745 95.2609C92.8717 95.5941 92.2468 95.7609 91.4997 95.7609C90.7671 95.7609 90.1493 95.6087 89.6465 95.3043C89.1509 95 88.7701 94.5689 88.5044 94.0109C88.2388 93.4528 88.0914 92.7935 88.0627 92.0326H86.2418V95.6522H85.2722V87.8913H86.2418V91.1739H88.0843C88.1345 90.4854 88.2926 89.8876 88.5583 89.3804C88.824 88.8659 89.2011 88.4711 89.6896 88.1957C90.1781 87.913 90.7742 87.7717 91.4782 87.7717C92.2179 87.7717 92.8394 87.9385 93.3421 88.2717C93.8522 88.5978 94.2364 89.0615 94.495 89.663C94.7607 90.2572 94.8936 90.9565 94.8936 91.7609ZM89.0755 91.7609C89.0755 92.7391 89.2658 93.5109 89.6465 94.0761C90.0344 94.6341 90.6414 94.913 91.4674 94.913C92.3078 94.913 92.9183 94.6341 93.299 94.0761C93.6869 93.5109 93.8808 92.7391 93.8808 91.7609C93.8808 90.7826 93.6906 90.018 93.3098 89.4674C92.929 88.9093 92.3222 88.6304 91.4889 88.6304C90.6557 88.6304 90.0452 88.9093 89.6573 89.4674C89.2694 90.0254 89.0755 90.7898 89.0755 91.7609ZM104.417 87.8913V94.7826H105.398V97.6956H104.471V95.6522H99.1807V97.6956H98.2541V94.7826H98.8467C99.1053 94.3333 99.3495 93.8298 99.5794 93.2717C99.8164 92.7137 100.025 92.1304 100.204 91.5217C100.384 90.9059 100.531 90.2898 100.646 89.6739C100.761 89.058 100.833 88.4637 100.862 87.8913H104.417ZM101.713 88.7717C101.684 89.192 101.612 89.6667 101.497 90.1957C101.389 90.7246 101.249 91.268 101.077 91.8261C100.912 92.3767 100.725 92.9093 100.517 93.4239C100.316 93.9385 100.1 94.3913 99.8703 94.7826H103.458V88.7717H101.713ZM113.396 91.7609C113.396 92.5652 113.26 93.268 112.987 93.8696C112.721 94.4637 112.326 94.9276 111.802 95.2609C111.278 95.5941 110.627 95.7609 109.852 95.7609C109.054 95.7609 108.39 95.5941 107.858 95.2609C107.334 94.9276 106.943 94.4602 106.684 93.8587C106.425 93.2572 106.296 92.5544 106.296 91.75C106.296 90.9528 106.425 90.2572 106.684 89.663C106.943 89.0689 107.334 88.605 107.858 88.2717C108.39 87.9385 109.058 87.7717 109.862 87.7717C110.631 87.7717 111.278 87.9385 111.802 88.2717C112.326 88.5978 112.721 89.0615 112.987 89.663C113.26 90.2572 113.396 90.9565 113.396 91.7609ZM107.32 91.7609C107.32 92.7391 107.524 93.5109 107.934 94.0761C108.343 94.6341 108.983 94.913 109.852 94.913C110.728 94.913 111.367 94.6341 111.769 94.0761C112.172 93.5109 112.373 92.7391 112.373 91.7609C112.373 90.7826 112.172 90.018 111.769 89.4674C111.367 88.9093 110.732 88.6304 109.862 88.6304C108.993 88.6304 108.351 88.9093 107.934 89.4674C107.524 90.018 107.32 90.7826 107.32 91.7609ZM121.029 88.6413C120.203 88.6413 119.553 88.9202 119.079 89.4783C118.605 90.0363 118.368 90.8007 118.368 91.7717C118.368 92.7354 118.587 93.5 119.025 94.0652C119.47 94.6233 120.135 94.9022 121.018 94.9022C121.356 94.9022 121.675 94.8733 121.977 94.8152C122.279 94.7572 122.573 94.6848 122.861 94.5978V95.4456C122.573 95.5543 122.275 95.6341 121.966 95.6848C121.665 95.7354 121.302 95.7609 120.878 95.7609C120.095 95.7609 119.441 95.5978 118.917 95.2717C118.393 94.9457 117.998 94.482 117.732 93.8804C117.473 93.2789 117.344 92.5724 117.344 91.7609C117.344 90.9783 117.484 90.2898 117.764 89.6956C118.052 89.0941 118.472 88.6267 119.025 88.2935C119.578 87.9528 120.25 87.7826 121.04 87.7826C121.851 87.7826 122.559 87.9348 123.162 88.2391L122.774 89.0652C122.537 88.9565 122.272 88.8587 121.977 88.7717C121.69 88.6848 121.374 88.6413 121.029 88.6413ZM128.839 95.6522H124.54V87.8913H128.839V88.75H125.509V91.1739H128.645V92.0217H125.509V94.7935H128.839V95.6522ZM130.526 95.6522V87.8913H135.095V88.75H131.496V91.1739H132.638C133.407 91.1739 134.003 91.2717 134.427 91.4674C134.851 91.6559 135.145 91.9167 135.31 92.25C135.476 92.5761 135.558 92.9528 135.558 93.3804C135.558 94.0907 135.346 94.6485 134.922 95.0543C134.499 95.4528 133.784 95.6522 132.778 95.6522H130.526ZM132.681 94.8152C133.371 94.8152 133.856 94.6994 134.136 94.4674C134.416 94.2283 134.556 93.8659 134.556 93.3804C134.556 92.8804 134.402 92.5289 134.093 92.3261C133.784 92.1233 133.26 92.0217 132.52 92.0217H131.496V94.8152H132.681ZM141.454 95.6522H137.155V87.8913H141.454V88.75H138.125V91.1739H141.26V92.0217H138.125V94.7935H141.454V95.6522Z" fill="white"/>
</svg>
