<svg width="182" height="103" viewBox="0 0 182 103" fill="none" xmlns="http://www.w3.org/2000/svg">
<path d="M163.37 8.76196C162.346 8.76196 161.36 9.68034 161.36 10.7135C161.36 11.7467 161.967 12.5886 163.143 13.1626L168.415 15.6499L165.722 10.4839C165.153 9.33594 164.357 8.76196 163.37 8.76196Z" fill="#682C8F"/>
<path d="M8.38278 73.8913V44.1966H21.9242V43.0869H8.38278V20.127H21.9242V19.0173H3.86896C4.4 20.0505 4.66552 21.1985 4.66552 22.3847V73.8913H8.38278ZM43.8604 71.8631C42.9123 72.5138 41.8882 72.8199 40.7502 72.7816H29.1053V44.1966H42.6468V43.0869H29.1053V20.127H42.6468V19.0173H24.5915C25.1224 20.0505 25.3881 21.1985 25.3881 22.3847V73.8913H41.0916C42.3811 73.8913 43.5191 73.5086 44.5054 72.705L43.8604 71.8631ZM65.7209 71.8631C64.7727 72.5138 63.7486 72.8199 62.6107 72.7816H51.7244V19.0173H47.2106C47.7417 20.0505 48.0072 21.1985 48.0072 22.3847V73.8913H62.9141C64.2038 73.8913 65.3416 73.5086 66.3279 72.705L65.7209 71.8631ZM72.7503 22.3847C72.7503 21.1985 73.016 20.0505 73.5469 19.0173H68.2365C68.7676 20.0505 69.033 21.1985 69.033 22.3847V70.5239C68.9951 71.7101 68.7296 72.8581 68.2365 73.8913H73.5469C73.016 72.8581 72.7503 71.7101 72.7503 70.5239V22.3847ZM124.425 26.5558C121.58 23.8389 118.545 21.8107 115.359 20.4331C112.173 19.0938 108.342 18.405 103.904 18.405C96.2418 18.405 89.7178 21.1219 84.3315 26.5941C78.9452 32.0661 76.2522 38.6861 76.2522 46.4543C76.2522 54.2223 78.9452 60.8425 84.3315 66.3145C89.7178 71.7867 96.2418 74.5035 103.904 74.5035C111.983 74.5035 118.773 71.6719 124.273 65.9701L123.4 65.1282C117.863 70.677 111.376 73.432 103.904 73.432C96.5452 73.432 90.7798 70.8299 86.5694 65.5875C82.359 60.345 80.2729 53.9928 80.2729 46.4543C80.2729 38.9158 82.359 32.5637 86.5694 27.3212C90.7798 22.1169 96.5452 19.5147 103.904 19.5147C111.149 19.5147 117.37 22.4994 122.49 28.4309L124.425 26.5558ZM131.644 22.3847C131.644 21.1985 131.909 20.0505 132.44 19.0173H127.13C127.661 20.0505 127.926 21.1985 127.926 22.3847V70.5239C127.889 71.7101 127.623 72.8581 127.13 73.8913H132.44C131.909 72.8581 131.644 71.7101 131.644 70.5239V22.3847ZM156.121 20.127V19.0173H134.349V20.127H143.376V70.5239C143.376 71.7101 143.111 72.8581 142.618 73.8913H147.89C147.359 72.8581 147.094 71.7101 147.094 70.5239V20.127H156.121ZM179.878 73.8913C179.31 73.0494 178.892 71.9014 178.627 70.4473L169.637 21.4663C169.372 20.0887 168.272 19.0173 166.906 19.0173H163.416C163.985 20.2801 164.099 21.849 163.796 23.724L154.92 73.8913H156.096L157.878 63.6358H173.582L174.834 70.4473C175.099 71.6336 174.985 72.7816 174.53 73.8913H179.878ZM158.106 62.5261L165.503 20.5097L165.579 20.4331C165.616 20.4331 165.654 20.4714 165.654 20.5097L173.354 62.5261H158.106Z" fill="#682C8F"/>
<path d="M39.0523 92.3977C39.0523 92.9425 38.8821 93.3755 38.5419 93.6964C38.2016 94.0099 37.7466 94.2114 37.1769 94.301V94.3458C37.8427 94.4353 38.3494 94.6442 38.6972 94.9727C39.045 95.3012 39.2188 95.7302 39.2188 96.2602C39.2188 96.9617 38.9525 97.5327 38.4198 97.9732C37.8871 98.4136 37.0881 98.6337 36.0227 98.6337C35.5937 98.6337 35.1831 98.6001 34.7909 98.5329C34.4062 98.4732 34.0473 98.3612 33.7144 98.1971V97.279C34.0622 97.4431 34.4395 97.5739 34.8464 97.6709C35.2608 97.7604 35.6492 97.8052 36.0116 97.8052C36.7219 97.8052 37.2583 97.6709 37.6208 97.4022C37.9908 97.1335 38.1756 96.7528 38.1756 96.2602C38.1756 95.7526 37.961 95.3831 37.532 95.1518C37.1029 94.9205 36.5037 94.8048 35.7342 94.8048H34.6022V93.9651H35.6787C36.4628 93.9651 37.0475 93.8346 37.4321 93.5733C37.8243 93.3046 38.0203 92.9463 38.0203 92.4985C38.0203 92.0954 37.8722 91.7858 37.5764 91.5692C37.2805 91.3527 36.8956 91.2446 36.4222 91.2446C35.9266 91.2446 35.5122 91.3079 35.1793 91.4349C34.8537 91.5618 34.5356 91.726 34.2249 91.9275L33.7477 91.2446C34.0584 91.0133 34.4395 90.8191 34.8908 90.6624C35.3495 90.4983 35.8636 90.4161 36.4333 90.4161C37.2916 90.4161 37.9426 90.6026 38.3865 90.9759C38.8304 91.3491 39.0523 91.8229 39.0523 92.3977ZM49.3069 98.5217H48.3082V91.4125H45.8001C45.7335 91.9649 45.6594 92.5471 45.5782 93.159C45.4967 93.7636 45.4152 94.342 45.334 94.8944C45.2526 95.4467 45.1711 95.917 45.0899 96.305C44.9935 96.805 44.8752 97.2304 44.7347 97.5813C44.594 97.9322 44.4054 98.1971 44.1688 98.3762C43.9393 98.5553 43.6361 98.6449 43.2588 98.6449C43.1329 98.6449 43.0035 98.6299 42.8704 98.6001C42.7445 98.5777 42.6335 98.5479 42.5374 98.5105V97.6709C42.6187 97.7083 42.7112 97.7419 42.8149 97.7716C42.9183 97.794 43.0293 97.8052 43.1478 97.8052C43.3697 97.8052 43.5435 97.7157 43.6694 97.5365C43.8025 97.35 43.906 97.1223 43.9801 96.8536C44.054 96.5775 44.1168 96.305 44.1688 96.0363C44.2278 95.7526 44.2982 95.3384 44.3796 94.7936C44.4684 94.2412 44.5607 93.5995 44.6571 92.8679C44.7605 92.1364 44.8641 91.3565 44.9678 90.528H49.3069V98.5217ZM61.37 94.5137C61.37 95.3422 61.2368 96.0661 60.9705 96.6857C60.7115 97.2976 60.323 97.7754 59.8052 98.1187C59.2874 98.462 58.6438 98.6337 57.8743 98.6337C57.1196 98.6337 56.4833 98.477 55.9655 98.1635C55.455 97.85 55.0628 97.406 54.7891 96.8312C54.5155 96.2564 54.3636 95.5773 54.3341 94.7936H52.4586V98.5217H51.4599V90.528H52.4586V93.9091H54.3563C54.408 93.2 54.5709 92.5842 54.8446 92.0619C55.1183 91.5318 55.5067 91.1252 56.0099 90.8415C56.513 90.5504 57.1269 90.4049 57.8521 90.4049C58.614 90.4049 59.2541 90.5766 59.7719 90.9199C60.2973 91.2558 60.693 91.7334 60.9594 92.3529C61.233 92.9649 61.37 93.6852 61.37 94.5137ZM55.3773 94.5137C55.3773 95.5213 55.5733 96.3162 55.9655 96.8984C56.365 97.4732 56.9902 97.7604 57.841 97.7604C58.7066 97.7604 59.3354 97.4732 59.7275 96.8984C60.1271 96.3162 60.3268 95.5213 60.3268 94.5137C60.3268 93.5061 60.1308 92.7186 59.7386 92.1514C59.3465 91.5766 58.7214 91.2893 57.8632 91.2893C57.0049 91.2893 56.3761 91.5766 55.9766 92.1514C55.5771 92.7262 55.3773 93.5135 55.3773 94.5137ZM63.1318 98.5217V90.528H67.8372V91.4125H64.1306V93.9091H65.307C66.0987 93.9091 66.7126 94.0099 67.1491 94.2114C67.5857 94.4055 67.8889 94.6742 68.0591 95.0175C68.2294 95.3534 68.3144 95.7414 68.3144 96.1819C68.3144 96.9134 68.0962 97.4879 67.6596 97.906C67.2231 98.3164 66.4871 98.5217 65.4512 98.5217H63.1318ZM65.3513 97.6597C66.0616 97.6597 66.561 97.5403 66.8495 97.3014C67.1381 97.0551 67.2823 96.6818 67.2823 96.1819C67.2823 95.6669 67.1232 95.3048 66.8051 95.0959C66.4871 94.887 65.9468 94.7824 65.1849 94.7824H64.1306V97.6597H65.3513ZM76.8733 94.5137C76.8733 95.3422 76.7326 96.0661 76.4516 96.6857C76.1777 97.2976 75.7708 97.7754 75.2308 98.1187C74.6906 98.462 74.0212 98.6337 73.2222 98.6337C72.401 98.6337 71.7165 98.462 71.1691 98.1187C70.6289 97.7754 70.2258 97.294 69.9595 96.6745C69.6932 96.0549 69.56 95.331 69.56 94.5025C69.56 93.6814 69.6932 92.9649 69.9595 92.3529C70.2258 91.741 70.6289 91.2631 71.1691 90.9199C71.7165 90.5766 72.4045 90.4049 73.2333 90.4049C74.0248 90.4049 74.6906 90.5766 75.2308 90.9199C75.7708 91.2558 76.1777 91.7334 76.4516 92.3529C76.7326 92.9649 76.8733 93.6852 76.8733 94.5137ZM70.6143 94.5137C70.6143 95.5213 70.8251 96.3162 71.2468 96.8984C71.6685 97.4732 72.3268 97.7604 73.2222 97.7604C74.1246 97.7604 74.7832 97.4732 75.1975 96.8984C75.6117 96.3162 75.819 95.5213 75.819 94.5137C75.819 93.5061 75.6117 92.7186 75.1975 92.1514C74.7832 91.5766 74.1284 91.2893 73.2333 91.2893C72.3379 91.2893 71.6758 91.5766 71.2468 92.1514C70.8251 92.7186 70.6143 93.5061 70.6143 94.5137ZM80.8933 90.528C81.8847 90.528 82.6318 90.6774 83.135 90.9759C83.6455 91.267 83.9007 91.7781 83.9007 92.5097C83.9007 92.9799 83.7713 93.3717 83.5123 93.6852C83.2533 93.9913 82.8797 94.189 82.3914 94.2786V94.3346C82.7244 94.3867 83.024 94.4839 83.2903 94.6256C83.564 94.7674 83.7786 94.9689 83.934 95.2302C84.0894 95.4915 84.167 95.831 84.167 96.249C84.167 96.9729 83.9191 97.5327 83.4235 97.9284C82.9352 98.324 82.2656 98.5217 81.4148 98.5217H78.6294V90.528H80.8933ZM81.093 93.9315C81.7737 93.9315 82.2398 93.8234 82.4913 93.6068C82.7428 93.3829 82.8686 93.0545 82.8686 92.6216C82.8686 92.1812 82.7133 91.8677 82.4025 91.6812C82.0991 91.4871 81.6108 91.3901 80.9376 91.3901H79.6281V93.9315H81.093ZM79.6281 94.7712V97.6709H81.2262C81.9291 97.6709 82.4174 97.5327 82.6911 97.2566C82.9647 96.9805 83.1017 96.6185 83.1017 96.1707C83.1017 95.7526 82.9574 95.4167 82.6689 95.163C82.3877 94.9017 81.8809 94.7712 81.1485 94.7712H79.6281ZM86.2554 90.7537C86.2554 91.0889 86.1868 91.4114 86.0494 91.7213C85.9158 92.0309 85.7316 92.2934 85.4967 92.5086L85.1121 92.2296C85.2781 92 85.4029 91.7723 85.4859 91.5464C85.5691 91.3167 85.6106 91.0563 85.6106 90.7645V90.125H86.2554V90.7537ZM97.7405 94.5137C97.7405 95.3422 97.6073 96.0661 97.341 96.6857C97.0819 97.2976 96.6935 97.7754 96.1757 98.1187C95.6579 98.462 95.0142 98.6337 94.2447 98.6337C93.4901 98.6337 92.8538 98.477 92.3359 98.1635C91.8255 97.85 91.4333 97.406 91.1596 96.8312C90.8859 96.2564 90.7341 95.5773 90.7046 94.7936H88.8291V98.5217H87.8303V90.528H88.8291V93.9091H90.7268C90.7785 93.2 90.9414 92.5842 91.2151 92.0619C91.4888 91.5318 91.8772 91.1252 92.3803 90.8415C92.8835 90.5504 93.4974 90.4049 94.2225 90.4049C94.9845 90.4049 95.6246 90.5766 96.1424 90.9199C96.6678 91.2558 97.0635 91.7334 97.3299 92.3529C97.6035 92.9649 97.7405 93.6852 97.7405 94.5137ZM91.7478 94.5137C91.7478 95.5213 91.9438 96.3162 92.3359 96.8984C92.7355 97.4732 93.3607 97.7604 94.2114 97.7604C95.077 97.7604 95.7058 97.4732 96.098 96.8984C96.4975 96.3162 96.6973 95.5213 96.6973 94.5137C96.6973 93.5061 96.5013 92.7186 96.1091 92.1514C95.7169 91.5766 95.0919 91.2893 94.2336 91.2893C93.3754 91.2893 92.7466 91.5766 92.347 92.1514C91.9475 92.7262 91.7478 93.5135 91.7478 94.5137ZM107.55 90.528V97.6261H108.559V100.627H107.605V98.5217H102.156V100.627H101.202V97.6261H101.812C102.078 97.1633 102.33 96.6447 102.567 96.0699C102.811 95.4951 103.026 94.8943 103.21 94.2674C103.395 93.633 103.547 92.9985 103.665 92.3641C103.784 91.7298 103.858 91.1176 103.887 90.528H107.55ZM104.764 91.4349C104.735 91.8677 104.66 92.3567 104.542 92.9015C104.431 93.4463 104.287 94.0061 104.109 94.5809C103.939 95.148 103.747 95.6966 103.532 96.2266C103.325 96.7566 103.103 97.223 102.866 97.6261H106.562V91.4349H104.764ZM116.798 94.5137C116.798 95.3422 116.658 96.0661 116.377 96.6857C116.103 97.2976 115.696 97.7754 115.156 98.1187C114.616 98.462 113.946 98.6337 113.147 98.6337C112.326 98.6337 111.642 98.462 111.094 98.1187C110.554 97.7754 110.151 97.294 109.885 96.6745C109.618 96.0549 109.485 95.331 109.485 94.5025C109.485 93.6814 109.618 92.9649 109.885 92.3529C110.151 91.741 110.554 91.2631 111.094 90.9199C111.642 90.5766 112.33 90.4049 113.158 90.4049C113.95 90.4049 114.616 90.5766 115.156 90.9199C115.696 91.2558 116.103 91.7334 116.377 92.3529C116.658 92.9649 116.798 93.6852 116.798 94.5137ZM110.539 94.5137C110.539 95.5213 110.75 96.3162 111.172 96.8984C111.594 97.4732 112.252 97.7604 113.147 97.7604C114.05 97.7604 114.708 97.4732 115.123 96.8984C115.537 96.3162 115.744 95.5213 115.744 94.5137C115.744 93.5061 115.537 92.7186 115.123 92.1514C114.708 91.5766 114.054 91.2893 113.158 91.2893C112.263 91.2893 111.601 91.5766 111.172 92.1514C110.75 92.7186 110.539 93.5061 110.539 94.5137ZM124.66 91.3005C123.809 91.3005 123.139 91.5878 122.651 92.1626C122.163 92.7374 121.919 93.5247 121.919 94.5249C121.919 95.5175 122.144 96.305 122.596 96.8872C123.054 97.462 123.739 97.7492 124.649 97.7492C124.997 97.7492 125.326 97.7195 125.636 97.6597C125.947 97.5999 126.251 97.5253 126.546 97.4358V98.309C126.251 98.421 125.943 98.5032 125.625 98.5553C125.315 98.6075 124.941 98.6337 124.504 98.6337C123.698 98.6337 123.025 98.4658 122.485 98.1299C121.945 97.794 121.538 97.3164 121.264 96.6969C120.998 96.0773 120.864 95.3496 120.864 94.5137C120.864 93.7076 121.009 92.9985 121.297 92.3865C121.593 91.767 122.026 91.2855 122.596 90.9423C123.165 90.5914 123.857 90.4161 124.671 90.4161C125.507 90.4161 126.236 90.5728 126.857 90.8863L126.458 91.7372C126.213 91.6252 125.94 91.5245 125.636 91.4349C125.341 91.3453 125.015 91.3005 124.66 91.3005ZM132.704 98.5217H128.276V90.528H132.704V91.4125H129.275V93.9091H132.504V94.7824H129.275V97.6373H132.704V98.5217ZM134.442 98.5217V90.528H139.148V91.4125H135.441V93.9091H136.617C137.409 93.9091 138.023 94.0099 138.46 94.2114C138.896 94.4055 139.199 94.6742 139.37 95.0175C139.54 95.3534 139.625 95.7414 139.625 96.1819C139.625 96.9134 139.407 97.4879 138.97 97.906C138.534 98.3164 137.798 98.5217 136.762 98.5217H134.442ZM136.662 97.6597C137.372 97.6597 137.871 97.5403 138.16 97.3014C138.449 97.0551 138.593 96.6818 138.593 96.1819C138.593 95.6669 138.434 95.3048 138.116 95.0959C137.798 94.887 137.257 94.7824 136.495 94.7824H135.441V97.6597H136.662ZM145.698 98.5217H141.27V90.528H145.698V91.4125H142.269V93.9091H145.498V94.7824H142.269V97.6373H145.698V98.5217Z" fill="#682C8F"/>
</svg>
